<svg xmlns="http://www.w3.org/2000/svg" width="512" height="512" viewBox="0 0 512 512">
<defs><linearGradient id="cd" gradientUnits="userSpaceOnUse" x1="71" y1="95" x2="441" y2="447">
 <stop offset="0" stop-color="#2AB8C6"/><stop offset="0.34" stop-color="#6D74B6"/>
 <stop offset="0.66" stop-color="#EA4090"/><stop offset="1" stop-color="#F49200"/></linearGradient></defs><rect width="512" height="512" rx="114" fill="url(#cd)"/>
<polygon points="256,65 441,157 256,249 71,157" fill="#FFFFFF"/><polygon points="71,157 256,249 256,447 71,355" fill="#FFFFFF"/><polygon points="256,249 441,157 441,355 256,447" fill="#FFFFFF"/><polygon points="71,157 256,249 256,447 71,355" fill="#000" opacity="0.12"/><polygon points="256,249 441,157 441,355 256,447" fill="#000" opacity="0.30"/>
<g stroke="#00000022" stroke-opacity="0.18" stroke-width="2" fill="none" stroke-linejoin="round">
 <polygon points="256,65 441,157 256,249 71,157"/><polygon points="71,157 256,249 256,447 71,355"/><polygon points="256,249 441,157 441,355 256,447"/>
</g></svg>