<svg xmlns="http://www.w3.org/2000/svg" width="512" height="512" viewBox="0 0 512 512">
<defs>
 <linearGradient id="bg" x1="0" y1="0" x2="0" y2="1"><stop offset="0" stop-color="#2E363B"/><stop offset="1" stop-color="#1E2428"/></linearGradient>
 <linearGradient id="cd" gradientUnits="userSpaceOnUse" x1="71" y1="95" x2="441" y2="447">
  <stop offset="0" stop-color="#2AB8C6"/><stop offset="0.34" stop-color="#6D74B6"/>
  <stop offset="0.66" stop-color="#EA4090"/><stop offset="1" stop-color="#F49200"/></linearGradient>
</defs>
<rect width="512" height="512" rx="114" fill="url(#bg)"/>
<rect x="6" y="6" width="500" height="500" rx="110" fill="none" stroke="#FFFFFF" stroke-opacity="0.06" stroke-width="2"/>
<polygon points="256,65 441,157 256,249 71,157" fill="url(#cd)"/>
<polygon points="71,157 256,249 256,447 71,355" fill="url(#cd)"/>
<polygon points="256,249 441,157 441,355 256,447" fill="url(#cd)"/>
<polygon points="71,157 256,249 256,447 71,355" fill="#000000" opacity="0.10"/>
<polygon points="256,249 441,157 441,355 256,447" fill="#000000" opacity="0.26"/>
<g stroke="#000000" stroke-opacity="0.16" stroke-width="2" fill="none" stroke-linejoin="round">
 <polygon points="256,65 441,157 256,249 71,157"/><polygon points="71,157 256,249 256,447 71,355"/><polygon points="256,249 441,157 441,355 256,447"/>
</g></svg>